HIERARCHY
ROOT Hips
{
	OFFSET 0.00000 0.00000 0.00000
	CHANNELS 6 Xposition Yposition Zposition Yrotation Zrotation Xrotation 
	JOINT Lumbar
	{
		OFFSET 0 0 0
		CHANNELS 3 Zrotation Xrotation Yrotation
		JOINT Neck
		{
			OFFSET 0.00 0.2701 0.00
			CHANNELS 3 Zrotation Xrotation Yrotation
			End Site
			{
				OFFSET 0.00 0.1379 0.00
			}
		}
		JOINT RightShoulder
		{
			OFFSET 0.0119 0.2289 0.1181
			CHANNELS 3 Zrotation Xrotation Yrotation
			JOINT RightElbow
			{
				OFFSET 0.00 -0.1475 0.00
				CHANNELS 2 Zrotation Yrotation
				JOINT RightWrist
				{
					OFFSET 0.00 -0.1605 0.00
					CHANNELS 2 Zrotation Xrotation
					End Site
					{
						OFFSET 0.0040 -0.1068 0.0006
					}
				}
			}
		}
		JOINT LeftShoulder
		{
			OFFSET 0.0119 0.2289 -0.1181
			CHANNELS 3 Zrotation Xrotation Yrotation
			JOINT LeftElbow
			{
				OFFSET 0.00 -0.1475 0.00
				CHANNELS 2 Zrotation Yrotation
				JOINT LeftWrist
				{
					OFFSET 0.00 -0.1605 0.00
					CHANNELS 2 Zrotation Xrotation
					End Site
					{
						OFFSET 0.0040 -0.1068 -0.0006
					}
				}
			}
		}
	}
	JOINT RightHip
	{
		OFFSET 0.0316 -0.0424 0.0458
		CHANNELS 3 Zrotation Xrotation Yrotation
		JOINT RightKnee
		{
			OFFSET 0.00 -0.2438 0.00
			CHANNELS 1 Zrotation
			JOINT RightAnkle
			{
				OFFSET 0.00 -0.2449 0.00
				CHANNELS 3 Zrotation Xrotation Yrotation
				End Site
				{
					OFFSET 0.1237 -0.0542 0.0051
				}
			}
		}
	}
	JOINT LeftHip
	{
		OFFSET 0.0316 -0.0424 -0.0458
		CHANNELS 3 Zrotation Xrotation Yrotation
		JOINT LeftKnee
		{
			OFFSET 0.00 -0.2438 0.00
			CHANNELS 1 Zrotation
			JOINT LeftAnkle
			{
				OFFSET 0.00 -0.2449 0.00
				CHANNELS 3 Zrotation Xrotation Yrotation
				End Site
				{
					OFFSET 0.1237 -0.0542 -0.0051
				}
			}
		}
	}
}
MOTION
Frames: 28
Frame Time: 0.02
-0.25148 0.57274 -0.19128 186.10283 0 -3.12573 2.5836 2.85456 -7.87506 -24.43855 9.528 8.17285 26.77308 -39.6429 17.36067 16.33072 83.7752 -1.14537 -5.86916 37.43068 28.36147 -12.3376 38.29525 -120.02766 -35.13968 8.37083 -0.39313 7.43195 2.23511 -14.53637 -5.92807 -2.5796 -10.88012 8.75563 6.77313 11.30705 -19.1772 -5.29439 2.74554 10.89183
-0.24877 0.5728 -0.19466 186.23854 0 -3.09799 2.49725 3.29075 -8.00983 -24.03376 9.06144 7.61387 27.80144 -40.77328 13.74651 15.60245 83.60505 -1.53916 -5.31405 38.70847 31.97338 -10.94738 39.81379 -119.33992 -36.12507 8.13357 -0.20039 7.64891 2.01928 -14.39246 -6.13193 -2.52418 -10.79752 9.99676 7.20802 10.88418 -20.90447 -5.4967 2.68844 10.63442
-0.24618 0.573 -0.1978 186.23093 0 -3.00975 2.43459 3.67016 -8.04712 -23.67052 8.64334 7.09731 29.10039 -42.07119 9.6703 14.94536 83.44084 -2.08589 -4.78421 40.15837 35.53511 -9.43207 40.75095 -118.40916 -36.60723 7.94655 0.04452 7.79375 1.91473 -14.33861 -6.36562 -2.46344 -10.75295 11.13435 7.5643 10.63362 -22.46501 -5.79971 2.60459 10.22107
-0.24359 0.57315 -0.20099 186.27695 0 -2.94683 2.37116 4.0721 -8.12598 -23.30814 8.21193 6.57212 30.31783 -43.30965 5.87978 14.27584 83.27423 -2.5699 -4.25958 41.55738 39.09372 -8.00684 41.90412 -117.60157 -37.29061 7.7411 0.25674 7.96536 1.76967 -14.23606 -6.5859 -2.40681 -10.68802 12.28527 7.94764 10.30967 -24.04964 -6.02923 2.53733 9.87722
-0.24077 0.57326 -0.2044 186.37621 0 -2.89468 2.26437 4.49109 -8.21741 -22.85605 7.73729 5.99613 31.35158 -44.47941 1.73443 13.5177 83.11064 -3.02465 -3.66377 42.83845 42.78973 -6.43145 43.28236 -116.70842 -38.08804 7.51303 0.5034 8.16287 1.57292 -14.15862 -6.80804 -2.34301 -10.62836 13.58729 8.37087 9.95638 -25.86686 -6.37154 2.45182 9.53631
-0.23847 0.57347 -0.20731 186.32908 0 -2.80609 2.25445 4.86049 -8.25932 -22.60416 7.36729 5.53862 32.84555 -45.82994 -1.75008 12.96411 82.94076 -3.57893 -3.22113 44.40858 46.17381 -5.14377 44.04544 -115.94535 -38.53093 7.34493 0.69214 8.29034 1.51802 -14.0542 -7.03256 -2.29232 -10.57413 14.54485 8.69119 9.7096 -27.15107 -6.5066 2.39749 9.15509
-0.23753 0.57397 -0.20896 185.90873 0 -2.61953 2.50024 5.09822 -8.18647 -22.88276 7.26683 5.39486 35.42464 -47.65459 -3.51427 12.94211 82.7478 -4.34615 -3.21247 46.71456 48.74498 -4.66929 43.25368 -115.63544 -38.09735 7.3381 0.70721 8.22598 1.77129 -13.8415 -7.25459 -2.28674 -10.46738 14.59877 8.74469 9.7012 -27.04676 -6.01839 2.43938 8.67792
-0.23713 0.57456 -0.21012 185.34623 0 -2.40012 2.84389 5.28874 -8.06787 -23.36468 7.27215 5.37094 38.48203 -49.65093 -4.55227 13.12694 82.54755 -5.21281 -3.35444 49.30836 50.99271 -4.49108 41.86111 -115.46448 -37.32942 7.3892 0.66289 8.09585 2.17164 -13.60175 -7.47769 -2.29353 -10.37337 14.30473 8.69707 9.79814 -26.40305 -5.32343 2.51283 8.16927
-0.23651 0.57509 -0.21148 184.85047 0 -2.20351 3.14677 5.50636 -7.97055 -23.76187 7.23491 5.29404 41.39508 -51.56012 -5.78114 13.22784 82.35393 -6.04951 -3.4162 51.78505 53.36263 -4.18765 40.73748 -115.21091 -36.72645 7.40908 0.64681 8.00675 2.54597 -13.38295 -7.70144 -2.28939 -10.31548 14.15424 8.69665 9.85611 -25.97603 -4.74047 2.56955 7.69094
-0.23577 0.57569 -0.21292 184.33994 0 -1.97221 3.43493 5.69949 -7.86551 -24.12687 7.17631 5.20936 43.99864 -53.51979 -7.62404 13.2885 82.15028 -6.82642 -3.52747 54.21413 55.84017 -3.84434 39.60479 -115.02587 -36.04583 7.4508 0.62702 7.87019 2.76396 -13.13033 -7.9226 -2.3062 -10.0929 14.06098 8.6888 9.8802 -25.6606 -4.08428 2.63564 7.14227
-0.2354 0.57617 -0.21407 183.82929 0 -1.8054 3.77655 5.93154 -7.76979 -24.60813 7.1863 5.17245 47.37026 -55.40525 -7.99674 13.48139 81.96107 -7.75057 -3.57229 56.80323 58.01201 -3.65056 38.36392 -114.74003 -35.46056 7.46075 0.60046 7.81521 3.32578 -12.94097 -8.14761 -2.28398 -10.20212 13.76825 8.67278 10.00038 -24.9904 -3.53091 2.68976 6.73128
-0.23588 0.57629 -0.21457 183.34505 0 -1.83117 4.2428 6.29649 -7.68679 -25.34861 7.36361 5.20654 52.62597 -57.10432 -4.60539 13.98641 81.86001 -9.04467 -3.3873 59.80694 59.46346 -3.84707 36.90523 -114.09463 -35.16672 7.36365 0.56712 8.02408 4.93442 -12.92918 -8.39476 -2.13716 -11.34496 13.00216 8.66511 10.33573 -23.44397 -3.30562 2.7059 6.73891
-0.23672 0.5763 -0.21479 182.86797 0 -1.92205 4.75899 6.6998 -7.61938 -26.20126 7.60547 5.28981 58.65559 -58.70779 0.25524 14.61703 81.76997 -10.48339 -3.13255 62.95194 60.61064 -4.17602 35.37496 -113.35219 -34.99238 7.23321 0.52914 8.31359 6.86031 -12.98209 -8.6435 -1.95305 -12.80032 12.05014 8.65228 10.76736 -21.56701 -3.19159 2.70856 6.88193
-0.2374 0.57637 -0.21513 182.39343 0 -1.97924 5.25186 7.07688 -7.56167 -27.01006 7.81487 5.37165 64.41262 -60.3181 4.53524 15.19191 81.63804 -11.86532 -2.91497 66.00427 61.86756 -4.41124 33.92201 -112.6877 -34.8018 7.12128 0.49489 8.55162 8.55072 -13.00759 -8.8835 -1.79536 -14.03115 11.18768 8.63767 11.17067 -19.85866 -3.0304 2.71563 6.94273
-0.23807 0.57641 -0.2155 181.88878 0 -2.05268 5.75163 7.48991 -7.43297 -27.79529 8.04065 5.37127 69.86714 -62.10076 8.51224 15.77018 81.64117 -13.21997 -2.67683 69.19067 63.2321 -4.7949 32.25317 -111.88892 -34.44084 6.99758 0.4522 8.8494 10.62462 -13.02446 -9.15695 -1.59889 -15.6036 10.28808 8.63541 11.51459 -18.04646 -2.8479 2.73081 7.08685
-0.23884 0.57647 -0.21573 181.45118 0 -2.10801 6.24658 7.8372 -7.45452 -28.65434 8.24692 5.5499 76.11089 -63.48483 13.4101 16.36628 81.3913 -14.65586 -2.46644 72.12288 64.30638 -4.90126 31.03176 -111.34009 -34.46467 6.88928 0.42619 9.04339 11.98217 -13.07419 -9.36166 -1.4732 -16.54754 9.43068 8.6094 12.0012 -16.38824 -2.73864 2.72575 7.09355
-0.23981 0.57664 -0.21568 181.19172 0 -2.09897 6.72442 7.99861 -7.90454 -29.68261 8.37709 6.23023 84.49807 -63.91628 20.92444 17.00061 80.21326 -16.35595 -2.31827 74.35839 64.63855 -4.17331 31.00905 -111.54809 -35.54937 6.83513 0.45268 8.92581 11.20474 -13.2063 -9.37088 -1.56043 -15.60149 8.69891 8.50366 12.87714 -15.16063 -2.80754 2.66585 6.65799
-0.24086 0.57684 -0.21549 181.00143 0 -2.0693 7.19363 8.09165 -8.50247 -30.78154 8.4858 7.08458 93.62023 -63.92634 29.23629 17.6449 78.81728 -18.11973 -2.2047 76.32533 64.69381 -3.16815 31.45256 -112.00287 -37.01387 6.79678 0.49554 8.70223 9.70897 -13.36826 -9.31168 -1.7186 -14.02638 8.02449 8.37758 13.888 -14.11595 -2.94676 2.58641 6.08547
-0.24187 0.57703 -0.21535 180.78338 0 -2.04826 7.6608 8.21318 -9.02124 -31.85186 8.60836 7.84616 102.3047 -64.04601 36.88773 18.26925 77.67667 -19.8026 -2.0963 78.38633 64.88701 -2.31072 31.72106 -112.31515 -38.28805 6.74853 0.52757 8.53104 8.59398 -13.51142 -9.28746 -1.83866 -12.79063 7.34959 8.27147 14.82581 -13.04008 -3.05277 2.51709 5.59488
-0.24293 0.5772 -0.21525 180.54909 0 -2.03275 8.15498 8.34773 -9.58999 -32.91173 8.71705 8.66814 111.46024 -64.50583 45.82436 18.95872 75.89837 -21.70387 -1.90094 80.56636 65.01721 -1.36159 31.83009 -112.74991 -39.64066 6.71026 0.57323 8.3451 7.26293 -13.67775 -9.24756 -1.98198 -11.34097 6.5604 8.11994 15.82188 -11.73412 -3.16783 2.44165 5.0246
-0.2439 0.57741 -0.21504 180.36608 0 -1.99983 8.59017 8.43743 -10.09077 -34.00829 8.84733 9.40396 119.79142 -64.16131 52.28508 19.51886 75.36891 -23.17112 -1.89131 82.43817 65.21827 -0.54174 32.38418 -112.99237 -40.919 6.65582 0.59505 8.16333 6.20451 -13.80354 -9.22323 -2.09448 -10.18219 6.0248 8.05813 16.72073 -10.95388 -3.27928 2.37501 4.58762
-0.24461 0.5777 -0.21458 180.29875 0 -1.92516 8.8642 8.42861 -10.35748 -35.19031 9.05394 9.8677 125.72248 -61.67158 51.43033 19.67087 78.58789 -23.35507 -2.4267 83.47566 65.67199 -0.09489 34.04493 -112.61859 -41.89566 6.54929 0.54145 8.0219 6.09554 -13.79648 -9.26548 -2.102 -9.9893 6.18113 8.25066 17.37501 -11.59329 -3.36373 2.333 4.5387
-0.24523 0.57803 -0.21401 180.2824 0 -1.83336 9.07899 8.37537 -10.55256 -36.40522 9.28088 10.23702 130.78153 -58.39209 48.0953 19.70106 83.03232 -23.11041 -3.14188 84.21952 66.20976 0.20379 36.1394 -112.04814 -42.78457 6.4268 0.46399 7.88754 6.28012 -13.74929 -9.32454 -2.0767 -10.10746 6.59005 8.53411 17.91625 -12.7536 -3.44148 2.3014 4.6309
-0.2459 0.57834 -0.21348 180.24851 0 -1.74795 9.32085 8.33648 -10.78705 -37.6045 9.49024 10.64358 136.20235 -55.493 46.08246 19.81793 86.74474 -23.10892 -3.74671 85.13051 66.71812 0.53645 38.04124 -111.58415 -43.71545 6.31407 0.40158 7.7475 6.31513 -13.72972 -9.3713 -2.0683 -10.07608 6.88129 8.77471 18.47071 -13.67036 -3.52173 2.26805 4.66616
-0.24654 0.57866 -0.21299 180.19293 0 -1.66677 9.56175 8.31931 -10.99768 -38.81228 9.73275 11.07956 141.80569 -52.49 43.30174 19.802 91.15913 -22.9129 -4.46811 85.89446 67.18108 1.01761 39.94069 -111.05549 -44.65081 6.19112 0.32348 7.61367 6.39394 -13.67372 -9.43504 -2.05402 -10.05819 7.18892 9.02034 19.18863 -14.6271 -3.6071 2.22151 4.66473
-0.24722 0.57896 -0.21239 180.19417 0 -1.57421 9.79079 8.24797 -11.23915 -40.00534 9.91303 11.43034 146.79878 -49.5194 41.4874 20.03486 94.44245 -23.01012 -4.99588 86.89283 67.76026 1.15307 41.94169 -110.61298 -45.55107 6.08566 0.2703 7.47064 6.46001 -13.68102 -9.46868 -2.0432 -10.09335 7.51878 9.27822 19.54047 -15.61564 -3.6789 2.20509 4.77705
-0.248 0.57921 -0.21153 180.33577 0 -1.44402 10.0005 8.03202 -11.58156 -41.18258 9.90139 11.56112 150.42784 -46.85233 43.23128 20.97344 93.98178 -24.10367 -4.88518 88.66231 68.65767 0.34603 44.11715 -110.44383 -46.37239 6.03068 0.30759 7.29505 6.42684 -13.89553 -9.412 -2.05051 -10.20903 7.87251 9.54008 18.88314 -16.61692 -3.71773 2.27012 5.14997
-0.24883 0.57944 -0.21055 180.53314 0 -1.30515 10.20059 7.76461 -11.95692 -42.33731 9.82917 11.60989 153.4485 -44.24475 45.97821 22.16837 92.39944 -25.49334 -4.58401 90.67138 69.66678 -0.8021 46.37662 -110.36922 -47.15931 5.99411 0.36769 7.11156 6.37296 -14.17075 -9.32535 -2.06201 -10.36859 8.23466 9.81246 17.86622 -17.62067 -3.74227 2.36501 5.63534
